<svg
  width="355"
  height="430"
  viewBox="0 0 355 430"
  fill="none"
  xmlns="http://www.w3.org/2000/svg"
>
  <g clip-path="url(#clip0_41004_963)">
    <path
      d="M291.661 0C194.441 47.9446 97.2203 95.8966 0 143.849C0.0294429 152.807 0.051525 161.774 0.0809679 170.733C0.051525 170.747 0.0294429 170.762 0 170.777C0.0294429 180.739 0.0588857 190.702 0.0956893 200.664C0.0662464 200.679 0.0294429 200.694 0 200.708C0.0294429 209.667 0.051525 218.633 0.0809679 227.592C0.051525 227.607 0.0294429 227.622 0 227.636C0.125132 269.611 0.257625 311.592 0.390118 353.567C20.7499 370.071 41.1096 386.568 61.4767 403.072C68.7712 399.197 76.073 395.322 83.3675 391.447C100.768 404.295 118.169 417.151 135.57 430C155.318 400.12 175.06 370.24 194.809 340.352C248.203 312.779 301.598 285.206 355 257.634V45.7543C333.889 30.5029 312.772 15.2514 291.661 0ZM88.0194 367.954L82.0794 376.766H81.2476C81.0415 373.17 80.828 369.573 80.6219 365.976C80.0625 356.292 79.5031 346.615 78.9437 336.938C78.4947 329.239 78.053 321.533 77.604 313.834C77.5083 313.856 77.4127 313.856 77.3243 313.9L42.7584 331.049L19.8519 342.41L10.386 347.106V151.291L287.105 14.0135V209.828L148.12 278.775C132.574 301.842 117.035 324.903 101.49 347.97C96.9995 354.629 92.5095 361.295 88.0194 367.954Z"
      fill="#009B95"
    />
    <path
      d="M148.413 164.729V123.019L133 130.637V111.254L186.13 85V104.383L170.672 112.016V153.727L148.406 164.729H148.413Z"
      fill="#009B95"
    />
    <path
      d="M148.413 164.729V123.019L133 130.637V111.254L186.13 85V104.383L170.672 112.016V153.727L148.406 164.729H148.413Z"
      fill="white"
      fill-opacity="0.8"
    />
    <path
      d="M186.785 130.67V117.206L217.354 102.101V115.565L186.785 130.67Z"
      fill="#009B95"
    />
    <path
      d="M186.785 130.67V117.206L217.354 102.101V115.565L186.785 130.67Z"
      fill="white"
      fill-opacity="0.8"
    />
    <path
      d="M43.0676 305.608V263.897L27.6543 271.516V252.133L80.784 225.878V245.261L65.3264 252.894V294.605L43.0603 305.608H43.0676Z"
      fill="#009B95"
    />
    <path
      d="M43.0676 305.608V263.897L27.6543 271.516V252.133L80.784 225.878V245.261L65.3264 252.894V294.605L43.0603 305.608H43.0676Z"
      fill="white"
      fill-opacity="0.8"
    />
    <path
      d="M102.064 276.453L79.0322 287.836L100.224 216.267L126.722 203.169L147.914 253.795L124.882 265.179L122.784 259.311L104.162 268.512L102.064 276.453ZM107.886 251.678L119.104 246.133C118.044 242.705 117.315 239.694 116.896 237.086C116.484 234.478 116.219 231.028 116.101 226.743L110.838 229.343C110.691 233.79 110.433 237.511 110.043 240.514C109.653 243.518 108.939 247.239 107.879 251.678H107.886Z"
      fill="#009B95"
    />
    <path
      d="M102.064 276.453L79.0322 287.836L100.224 216.267L126.722 203.169L147.914 253.795L124.882 265.179L122.784 259.311L104.162 268.512L102.064 276.453ZM107.886 251.678L119.104 246.133C118.044 242.705 117.315 239.694 116.896 237.086C116.484 234.478 116.219 231.028 116.101 226.743L110.838 229.343C110.691 233.79 110.433 237.511 110.043 240.514C109.653 243.518 108.939 247.239 107.879 251.678H107.886Z"
      fill="white"
      fill-opacity="0.8"
    />
    <path
      d="M51.0317 212.283L28 223.667L49.1915 152.098L75.6901 139L96.8816 189.626L73.8499 201.009L71.7521 195.142L53.1295 204.342L51.0317 212.283ZM56.854 187.509L68.0717 181.963C67.0118 178.535 66.2831 175.524 65.8635 172.917C65.4513 170.309 65.1863 166.858 65.0686 162.573L59.8057 165.174C59.6584 169.62 59.4008 173.341 59.0107 176.345C58.6206 179.348 57.9066 183.07 56.8466 187.509H56.854Z"
      fill="#009B95"
    />
    <path
      d="M51.0317 212.283L28 223.667L49.1915 152.098L75.6901 139L96.8816 189.626L73.8499 201.009L71.7521 195.142L53.1295 204.342L51.0317 212.283ZM56.854 187.509L68.0717 181.963C67.0118 178.535 66.2831 175.524 65.8635 172.917C65.4513 170.309 65.1863 166.858 65.0686 162.573L59.8057 165.174C59.6584 169.62 59.4008 173.341 59.0107 176.345C58.6206 179.348 57.9066 183.07 56.8466 187.509H56.854Z"
      fill="white"
      fill-opacity="0.8"
    />
    <path
      d="M154.163 250.711V189.61L176.429 178.608V220.318L197.532 209.887V229.27L154.163 250.697V250.711Z"
      fill="#009B95"
    />
    <path
      d="M154.163 250.711V189.61L176.429 178.608V220.318L197.532 209.887V229.27L154.163 250.697V250.711Z"
      fill="white"
      fill-opacity="0.8"
    />
    <path
      d="M245.443 205.609C242.734 201.038 240.496 197.763 238.745 195.778C236.993 193.793 235.292 192.599 233.651 192.203C232.01 191.808 230.007 192.108 227.637 193.112V214.414L205.371 225.417V164.316L227.637 153.313V173.597C229.779 172.344 231.59 170.747 233.077 168.821C234.564 166.894 236.058 164.206 237.574 160.763C239.083 157.32 240.997 152.251 243.308 145.57L267.797 133.469C266.023 138.318 264.47 142.42 263.131 145.768C261.791 149.116 260.429 152.192 259.045 154.99C257.662 157.789 256.373 160.096 255.196 161.898C254.011 163.708 252.664 165.385 251.147 166.946C249.631 168.498 248.107 169.817 246.569 170.894C245.031 171.971 243.19 173.077 241.048 174.22V179.245C243.5 178.146 245.627 177.34 247.43 176.82C249.226 176.3 250.985 176.058 252.693 176.095C254.408 176.132 255.932 176.454 257.271 177.069C258.611 177.685 260.024 178.717 261.511 180.175C262.998 181.633 264.441 183.376 265.854 185.42C267.267 187.464 268.872 190.042 270.668 193.156L245.45 205.616L245.443 205.609Z"
      fill="#009B95"
    />
    <path
      d="M245.443 205.609C242.734 201.038 240.496 197.763 238.745 195.778C236.993 193.793 235.292 192.599 233.651 192.203C232.01 191.808 230.007 192.108 227.637 193.112V214.414L205.371 225.417V164.316L227.637 153.313V173.597C229.779 172.344 231.59 170.747 233.077 168.821C234.564 166.894 236.058 164.206 237.574 160.763C239.083 157.32 240.997 152.251 243.308 145.57L267.797 133.469C266.023 138.318 264.47 142.42 263.131 145.768C261.791 149.116 260.429 152.192 259.045 154.99C257.662 157.789 256.373 160.096 255.196 161.898C254.011 163.708 252.664 165.385 251.147 166.946C249.631 168.498 248.107 169.817 246.569 170.894C245.031 171.971 243.19 173.077 241.048 174.22V179.245C243.5 178.146 245.627 177.34 247.43 176.82C249.226 176.3 250.985 176.058 252.693 176.095C254.408 176.132 255.932 176.454 257.271 177.069C258.611 177.685 260.024 178.717 261.511 180.175C262.998 181.633 264.441 183.376 265.854 185.42C267.267 187.464 268.872 190.042 270.668 193.156L245.45 205.616L245.443 205.609Z"
      fill="white"
      fill-opacity="0.8"
    />
    <path
      d="M126.834 135.632L114.071 141.373C113.402 136.64 109.269 136.281 107.202 136.965C105.136 137.649 104.102 140.675 105.136 142.692C106.169 144.709 111.181 147.097 114.797 148.701L109.786 156.812C105.136 154.248 101.52 153.282 94.8039 148.239C88.0882 143.196 87.5524 129.886 98.7718 126.389C109.991 122.893 117.134 126.002 126.834 135.632Z"
      fill="#009B95"
    />
    <path
      d="M126.834 135.632L114.071 141.373C113.402 136.64 109.269 136.281 107.202 136.965C105.136 137.649 104.102 140.675 105.136 142.692C106.169 144.709 111.181 147.097 114.797 148.701L109.786 156.812C105.136 154.248 101.52 153.282 94.8039 148.239C88.0882 143.196 87.5524 129.886 98.7718 126.389C109.991 122.893 117.134 126.002 126.834 135.632Z"
      fill="white"
      fill-opacity="0.8"
    />
    <path
      d="M95.1662 168.368L107.929 162.627C108.598 167.36 112.731 167.719 114.797 167.035C116.864 166.351 117.898 163.325 116.864 161.308C115.831 159.291 114.071 158.787 109.786 156.812L114.797 148.701C120.48 151.223 120.48 150.718 127.196 155.761C133.912 160.804 134.447 174.114 123.228 177.611C112.009 181.107 104.866 177.998 95.1662 168.368Z"
      fill="#009B95"
    />
    <path
      d="M95.1662 168.368L107.929 162.627C108.598 167.36 112.731 167.719 114.797 167.035C116.864 166.351 117.898 163.325 116.864 161.308C115.831 159.291 114.071 158.787 109.786 156.812L114.797 148.701C120.48 151.223 120.48 150.718 127.196 155.761C133.912 160.804 134.447 174.114 123.228 177.611C112.009 181.107 104.866 177.998 95.1662 168.368Z"
      fill="white"
      fill-opacity="0.8"
    />
    <g clip-path="url(#clip1_41004_963)">
      <mask
        id="mask0_41004_963"
        style="mask-type: luminance"
        maskUnits="userSpaceOnUse"
        x="10"
        y="8"
        width="63"
        height="63"
      >
        <path
          d="M71.9998 7.9999L10 8.17432L10.1744 70.1741L72.1742 69.9997L71.9998 7.9999Z"
          fill="white"
        />
      </mask>
      <g mask="url(#mask0_41004_963)">
        <path
          d="M41.1743 70.0869C40.1942 40.7207 39.4584 39.9937 10.0872 39.1742C39.4533 38.1941 40.1805 37.4583 40.9999 8.08711C41.9799 37.4532 42.7158 38.1804 72.087 38.9998C42.7208 39.9845 41.9937 40.7067 41.1743 70.0869Z"
          fill="#009B95"
        />
      </g>
    </g>
  </g>
  <g clip-path="url(#clip2_41004_963)">
    <mask
      id="mask1_41004_963"
      style="mask-type: luminance"
      maskUnits="userSpaceOnUse"
      x="253"
      y="327"
      width="79"
      height="79"
    >
      <path
        d="M331.5 327.5L253.5 327.719L253.719 405.719L331.719 405.5L331.5 327.5Z"
        fill="white"
      />
    </mask>
    <g mask="url(#mask1_41004_963)">
      <path
        d="M292.5 327.61C293.883 348.572 310.639 365.235 331.609 366.5C310.647 367.883 293.984 384.639 292.719 405.609C291.336 384.647 274.58 367.984 253.61 366.719C274.572 365.336 291.235 348.58 292.5 327.61Z"
        fill="#009B95"
      />
    </g>
  </g>
  <defs>
    <clipPath id="clip0_41004_963">
      <rect width="355" height="430" fill="white" />
    </clipPath>
    <clipPath id="clip1_41004_963">
      <rect
        width="62"
        height="62"
        fill="white"
        transform="translate(10 8.17432) rotate(-0.161186)"
      />
    </clipPath>
    <clipPath id="clip2_41004_963">
      <rect
        width="78"
        height="78"
        fill="white"
        transform="translate(253.5 327.719) rotate(-0.161186)"
      />
    </clipPath>
  </defs>
</svg>
